<svg width="65" height="64" viewBox="0 0 65 64" fill="none" xmlns="http://www.w3.org/2000/svg">
<path d="M0.911255 59.0151V4.9183C0.911255 3.61389 1.42943 2.3629 2.35179 1.44054C3.27415 0.518177 4.52514 0 5.82956 0L59.9263 0C61.2307 0 62.4817 0.518177 63.4041 1.44054C64.3264 2.3629 64.8446 3.61389 64.8446 4.9183V59.0151C64.8446 60.3195 64.3264 61.5705 63.4041 62.4928C62.4817 63.4152 61.2307 63.9334 59.9263 63.9334H45.176V40.6205H48.6649C49.4606 40.6205 50.2238 40.3044 50.7864 39.7417C51.3491 39.1791 51.6652 38.4159 51.6652 37.6202V33.839C51.6664 33.4447 51.5896 33.054 51.4393 32.6894C51.2889 32.3249 51.068 31.9936 50.7891 31.7148C50.5103 31.4359 50.1791 31.215 49.8145 31.0646C49.4499 30.9143 49.0592 30.8375 48.6649 30.8387H45.3678V26.2127C45.3678 22.0798 47.2401 22.0798 49.1079 22.0798H51.5145C51.9107 22.0974 52.3059 22.0275 52.6721 21.8752C53.0383 21.7228 53.3665 21.4918 53.6334 21.1985C53.9198 20.9259 54.1464 20.5968 54.2989 20.232C54.4515 19.8673 54.5265 19.4748 54.5194 19.0795V15.4445C54.544 14.6352 54.2469 13.8492 53.6931 13.2585C53.1393 12.6679 52.3739 12.3209 51.5647 12.2935H45.9112C44.2608 12.231 42.6165 12.5276 41.092 13.1628C39.5675 13.798 38.1991 14.7567 37.0813 15.9725C35.9636 17.1884 35.1232 18.6325 34.6182 20.205C34.1133 21.7775 33.9557 23.4408 34.1566 25.0801V30.8341H31.0056C30.6078 30.8281 30.2127 30.9012 29.8434 31.0493C29.4741 31.1974 29.1379 31.4174 28.8545 31.6966C28.571 31.9758 28.3459 32.3086 28.1923 32.6756C28.0387 33.0427 27.9596 33.4366 27.9596 33.8344V37.6248C27.9602 38.0227 28.0399 38.4165 28.194 38.7833C28.3482 39.1501 28.5738 39.4825 28.8577 39.7613C29.1416 40.0401 29.4781 40.2596 29.8476 40.4071C30.2172 40.5546 30.6123 40.6272 31.0102 40.6205H34.1566V63.9334H5.82956C4.52514 63.9334 3.27415 63.4152 2.35179 62.4928C1.42943 61.5705 0.911255 60.3195 0.911255 59.0151Z" fill="#E9E9E9"/>
</svg>
