<svg width="65" height="64" viewBox="0 0 65 64" fill="none" xmlns="http://www.w3.org/2000/svg">
<path fill-rule="evenodd" clip-rule="evenodd" d="M0.37793 17.7593C0.37793 13.0492 2.24899 8.53208 5.5795 5.20157C8.91001 1.87106 13.4271 0 18.1372 0H46.552C51.2621 0 55.7792 1.87106 59.1097 5.20157C62.4402 8.53208 64.3113 13.0492 64.3113 17.7593V46.1741C64.3113 50.8841 62.4402 55.4013 59.1097 58.7318C55.7792 62.0623 51.2621 63.9334 46.552 63.9334H18.1372C13.4271 63.9334 8.91001 62.0623 5.5795 58.7318C2.24899 55.4013 0.37793 50.8841 0.37793 46.1741V17.7593ZM18.1372 7.10371C15.3112 7.10371 12.6009 8.22634 10.6026 10.2246C8.60427 12.223 7.48164 14.9332 7.48164 17.7593V46.1741C7.48164 49.0001 8.60427 51.7104 10.6026 53.7087C12.6009 55.707 15.3112 56.8297 18.1372 56.8297H46.552C49.3781 56.8297 52.0883 55.707 54.0866 53.7087C56.0849 51.7104 57.2076 49.0001 57.2076 46.1741V17.7593C57.2076 14.9332 56.0849 12.223 54.0866 10.2246C52.0883 8.22634 49.3781 7.10371 46.552 7.10371H18.1372ZM45.1206 14.9675C45.1206 14.0255 45.4948 13.1221 46.1609 12.456C46.827 11.7899 47.7305 11.4157 48.6725 11.4157H48.708C49.65 11.4157 50.5534 11.7899 51.2195 12.456C51.8856 13.1221 52.2599 14.0255 52.2599 14.9675C52.2599 15.9095 51.8856 16.8129 51.2195 17.479C50.5534 18.1452 49.65 18.5194 48.708 18.5194H48.6725C47.7305 18.5194 46.827 18.1452 46.1609 17.479C45.4948 16.8129 45.1206 15.9095 45.1206 14.9675ZM32.3446 21.3111C29.5186 21.3111 26.8083 22.4338 24.81 24.4321C22.8117 26.4304 21.6891 29.1406 21.6891 31.9667C21.6891 34.7927 22.8117 37.503 24.81 39.5013C26.8083 41.4996 29.5186 42.6222 32.3446 42.6222C35.1706 42.6222 37.8809 41.4996 39.8792 39.5013C41.8775 37.503 43.0002 34.7927 43.0002 31.9667C43.0002 29.1406 41.8775 26.4304 39.8792 24.4321C37.8809 22.4338 35.1706 21.3111 32.3446 21.3111ZM14.5853 31.9667C14.5853 27.2566 16.4564 22.7395 19.7869 19.409C23.1174 16.0785 27.6346 14.2074 32.3446 14.2074C37.0547 14.2074 41.5718 16.0785 44.9023 19.409C48.2328 22.7395 50.1039 27.2566 50.1039 31.9667C50.1039 36.6767 48.2328 41.1939 44.9023 44.5244C41.5718 47.8549 37.0547 49.7259 32.3446 49.7259C27.6346 49.7259 23.1174 47.8549 19.7869 44.5244C16.4564 41.1939 14.5853 36.6767 14.5853 31.9667Z" fill="#E9E9E9"/>
</svg>
